<svg width="38" height="40" viewBox="0 0 38 40" fill="none" xmlns="http://www.w3.org/2000/svg">
<path fill-rule="evenodd" clip-rule="evenodd" d="M10.2006 0.0569801C10.2006 0.0883191 10.1367 0.11396 10.0586 0.11396C9.90074 0.11396 9.52802 0.45282 9.52802 0.59641C9.52802 0.644444 9.5028 0.683761 9.47198 0.683761C9.4393 0.683761 9.41593 0.873675 9.41593 1.1396C9.41593 1.40553 9.4393 1.59544 9.47198 1.59544C9.50645 1.59544 9.52802 1.88034 9.52802 2.33618C9.52802 2.79202 9.5496 3.07692 9.58407 3.07692C9.6177 3.07692 9.64012 3.30484 9.64012 3.64672C9.64012 3.9886 9.66254 4.21652 9.69617 4.21652C9.72979 4.21652 9.75221 4.44444 9.75221 4.78632C9.75221 5.12821 9.77463 5.35613 9.80826 5.35613C9.84407 5.35613 9.86431 5.84997 9.86431 6.72365C9.86431 7.59732 9.88454 8.09117 9.92035 8.09117C9.95538 8.09117 9.9764 8.43305 9.9764 9.00285C9.9764 9.57265 9.99742 9.91453 10.0324 9.91453C10.0673 9.91453 10.0885 10.2293 10.0885 10.7448C10.0885 11.5784 10.053 11.7379 9.86728 11.7379C9.77357 11.7379 9.07965 11.0109 9.07965 10.9128C9.07965 10.8651 9.05443 10.8262 9.0236 10.8262C8.99277 10.8262 8.96755 10.7749 8.96755 10.7123C8.96755 10.6496 8.94233 10.5983 8.9115 10.5983C8.88068 10.5983 8.85546 10.547 8.85546 10.4843C8.85546 10.4217 8.83024 10.3704 8.79941 10.3704C8.76858 10.3704 8.74336 10.3191 8.74336 10.2564C8.74336 10.1937 8.71814 10.1425 8.68732 10.1425C8.65649 10.1425 8.63127 10.0912 8.63127 10.0285C8.63127 9.96581 8.60605 9.91453 8.57522 9.91453C8.5444 9.91453 8.51917 9.84325 8.51917 9.75618C8.51917 9.66319 8.47288 9.56393 8.40708 9.51567C8.34543 9.47048 8.29498 9.38792 8.29498 9.33214C8.29498 9.27641 8.26976 9.23077 8.23894 9.23077C8.20811 9.23077 8.18289 9.17949 8.18289 9.11681C8.18289 9.05413 8.15767 9.00285 8.12684 9.00285C8.09602 9.00285 8.0708 8.95157 8.0708 8.88889C8.0708 8.82621 8.04558 8.77493 8.01475 8.77493C7.98392 8.77493 7.9587 8.72365 7.9587 8.66097C7.9587 8.59829 7.93348 8.54701 7.90265 8.54701C7.87183 8.54701 7.84661 8.49573 7.84661 8.43305C7.84661 8.37037 7.82139 8.31909 7.79056 8.31909C7.75973 8.31909 7.73451 8.26781 7.73451 8.20513C7.73451 8.14245 7.70929 8.09117 7.67847 8.09117C7.64764 8.09117 7.62242 8.03989 7.62242 7.97721C7.62242 7.91453 7.5972 7.86325 7.56637 7.86325C7.53555 7.86325 7.51032 7.81197 7.51032 7.74929C7.51032 7.68661 7.4851 7.63533 7.45428 7.63533C7.42345 7.63533 7.39823 7.58405 7.39823 7.52137C7.39823 7.45869 7.37301 7.40741 7.34218 7.40741C7.31136 7.40741 7.28614 7.35613 7.28614 7.29345C7.28614 7.23077 7.26091 7.17949 7.23009 7.17949C7.19926 7.17949 7.17404 7.12821 7.17404 7.06553C7.17404 7.00285 7.14882 6.95157 7.11799 6.95157C7.08717 6.95157 7.06195 6.90028 7.06195 6.83761C7.06195 6.77493 7.03673 6.72365 7.0059 6.72365C6.97507 6.72365 6.94985 6.67236 6.94985 6.60969C6.94985 6.54701 6.92463 6.49573 6.89381 6.49573C6.86298 6.49573 6.83776 6.44444 6.83776 6.38177C6.83776 6.31909 6.81254 6.26781 6.78171 6.26781C6.75089 6.26781 6.72566 6.21652 6.72566 6.15385C6.72566 6.09117 6.70044 6.03989 6.66962 6.03989C6.63879 6.03989 6.61357 5.99425 6.61357 5.93852C6.61357 5.88274 6.56313 5.80017 6.50147 5.75499C6.43982 5.7098 6.38938 5.62724 6.38938 5.57145C6.38938 5.51573 6.36416 5.47009 6.33333 5.47009C6.30251 5.47009 6.27729 5.4188 6.27729 5.35613C6.27729 5.29345 6.25206 5.24217 6.22124 5.24217C6.19041 5.24217 6.16519 5.19088 6.16519 5.12821C6.16519 5.06553 6.13997 5.01425 6.10914 5.01425C6.07832 5.01425 6.0531 4.93732 6.0531 4.84331C6.0531 4.74929 6.02788 4.67237 5.99705 4.67237C5.96622 4.67237 5.941 4.62108 5.941 4.5584C5.941 4.49573 5.91578 4.44444 5.88496 4.44444C5.85413 4.44444 5.82891 4.3988 5.82891 4.34308C5.82891 4.28729 5.77847 4.20473 5.71681 4.15954C5.65516 4.11436 5.60472 4.0318 5.60472 3.97601C5.60472 3.92029 5.5795 3.87464 5.54867 3.87464C5.51785 3.87464 5.49263 3.829 5.49263 3.77328C5.49263 3.71749 5.44218 3.63493 5.38053 3.58974C5.31888 3.54456 5.26844 3.47299 5.26844 3.43066C5.26844 3.33145 5.13017 3.19088 5.03259 3.19088C4.99095 3.19088 4.92055 3.1396 4.87611 3.07692C4.80722 2.97977 4.731 2.96296 4.35929 2.96296C4.10602 2.96296 3.9233 2.98684 3.9233 3.01994C3.9233 3.05128 3.88463 3.07692 3.83738 3.07692C3.79008 3.07692 3.66397 3.16581 3.55715 3.27447L3.36283 3.47197V4.07219C3.36283 4.4343 3.38508 4.67237 3.41888 4.67237C3.4497 4.67237 3.47493 4.74929 3.47493 4.84331C3.47493 4.93732 3.50015 5.01425 3.53097 5.01425C3.5618 5.01425 3.58702 5.06553 3.58702 5.12821C3.58702 5.19088 3.61224 5.24217 3.64307 5.24217C3.67389 5.24217 3.69911 5.31909 3.69911 5.41311C3.69911 5.50712 3.72434 5.58405 3.75516 5.58405C3.78599 5.58405 3.81121 5.66097 3.81121 5.75499C3.81121 5.849 3.83643 5.92593 3.86726 5.92593C3.89808 5.92593 3.9233 5.97721 3.9233 6.03989C3.9233 6.10256 3.94853 6.15385 3.97935 6.15385C4.01018 6.15385 4.0354 6.20513 4.0354 6.26781C4.0354 6.33048 4.06062 6.38177 4.09145 6.38177C4.12227 6.38177 4.14749 6.43305 4.14749 6.49573C4.14749 6.5584 4.17271 6.60969 4.20354 6.60969C4.23437 6.60969 4.25959 6.66097 4.25959 6.72365C4.25959 6.78632 4.28481 6.83761 4.31563 6.83761C4.34646 6.83761 4.37168 6.88889 4.37168 6.95157C4.37168 7.01425 4.3969 7.06553 4.42773 7.06553C4.45855 7.06553 4.48378 7.11681 4.48378 7.17949C4.48378 7.24217 4.509 7.29345 4.53982 7.29345C4.57065 7.29345 4.59587 7.34473 4.59587 7.40741C4.59587 7.47009 4.62109 7.52137 4.65192 7.52137C4.68274 7.52137 4.70796 7.57265 4.70796 7.63533C4.70796 7.69801 4.73319 7.74929 4.76401 7.74929C4.79484 7.74929 4.82006 7.82621 4.82006 7.92023C4.82006 8.01425 4.84528 8.09117 4.87611 8.09117C4.90693 8.09117 4.93215 8.14245 4.93215 8.20513C4.93215 8.26781 4.95738 8.31909 4.9882 8.31909C5.01903 8.31909 5.04425 8.37037 5.04425 8.43305C5.04425 8.49573 5.06947 8.54701 5.1003 8.54701C5.13112 8.54701 5.15634 8.59829 5.15634 8.66097C5.15634 8.72365 5.18156 8.77493 5.21239 8.77493C5.24322 8.77493 5.26844 8.85185 5.26844 8.94587C5.26844 9.03989 5.29366 9.11681 5.32448 9.11681C5.35531 9.11681 5.38053 9.16809 5.38053 9.23077C5.38053 9.29345 5.40575 9.34473 5.43658 9.34473C5.4674 9.34473 5.49263 9.39601 5.49263 9.45869C5.49263 9.52137 5.51785 9.57265 5.54867 9.57265C5.5795 9.57265 5.60472 9.64957 5.60472 9.74359C5.60472 9.83761 5.62994 9.91453 5.66077 9.91453C5.69159 9.91453 5.71681 9.96581 5.71681 10.0285C5.71681 10.0912 5.74204 10.1425 5.77286 10.1425C5.80369 10.1425 5.82891 10.1937 5.82891 10.2564C5.82891 10.3191 5.85413 10.3704 5.88496 10.3704C5.91578 10.3704 5.941 10.4217 5.941 10.4843C5.941 10.547 5.96622 10.5983 5.99705 10.5983C6.02788 10.5983 6.0531 10.6752 6.0531 10.7692C6.0531 10.8632 6.07832 10.9402 6.10914 10.9402C6.13997 10.9402 6.16519 10.9915 6.16519 11.0541C6.16519 11.1168 6.19041 11.1681 6.22124 11.1681C6.25206 11.1681 6.27729 11.2194 6.27729 11.2821C6.27729 11.3447 6.30251 11.396 6.33333 11.396C6.36416 11.396 6.38938 11.4729 6.38938 11.567C6.38938 11.661 6.4146 11.7379 6.44543 11.7379C6.47625 11.7379 6.50147 11.7892 6.50147 11.8519C6.50147 11.9145 6.5267 11.9658 6.55752 11.9658C6.58835 11.9658 6.61357 12.0427 6.61357 12.1368C6.61357 12.2308 6.63879 12.3077 6.66962 12.3077C6.70044 12.3077 6.72566 12.359 6.72566 12.4217C6.72566 12.4843 6.75089 12.5356 6.78171 12.5356C6.81254 12.5356 6.83776 12.6382 6.83776 12.7635C6.83776 12.8889 6.86298 12.9915 6.89381 12.9915C6.92463 12.9915 6.94985 13.0684 6.94985 13.1624C6.94985 13.2564 6.97507 13.3333 7.0059 13.3333C7.10471 13.3333 7.07265 13.9574 6.96835 14.0634C6.90031 14.1326 6.86847 14.1393 6.8516 14.0878C6.83882 14.0489 6.76495 14.0171 6.68744 14.0171C6.60303 14.0171 6.48337 13.9485 6.38938 13.8462C6.30301 13.7521 6.20426 13.6752 6.17001 13.6752C6.08986 13.6752 5.04425 12.614 5.04425 12.5326C5.04425 12.4989 4.91814 12.3464 4.76401 12.1937C4.60988 12.0411 4.48378 11.8872 4.48378 11.8519C4.48378 11.8165 4.35767 11.6626 4.20354 11.51C4.04941 11.3573 3.9233 11.2026 3.9233 11.1662C3.9233 11.1297 3.84764 11.028 3.75516 10.9402C3.66268 10.8524 3.58702 10.7507 3.58702 10.7142C3.58702 10.6777 3.46091 10.523 3.30678 10.3704C3.15265 10.2177 3.02655 10.0642 3.02655 10.0291C3.02655 9.9939 2.87522 9.81419 2.69027 9.62963C2.50531 9.44507 2.35398 9.26501 2.35398 9.22946C2.35398 9.1939 2.2531 9.06633 2.12979 8.94587C2.00649 8.82541 1.9056 8.69738 1.9056 8.66137C1.9056 8.5718 1.76229 8.43305 1.66976 8.43305C1.62812 8.43305 1.55772 8.38177 1.51327 8.31909C1.46883 8.25641 1.38762 8.20513 1.33275 8.20513C1.27793 8.20513 1.23304 8.17949 1.23304 8.14815C1.23304 8.11595 1.07364 8.09117 0.866882 8.09117C0.523761 8.09117 0.488451 8.10365 0.30641 8.28872C0.186973 8.41014 0.112094 8.54182 0.112094 8.6306C0.112094 8.70997 0.0868732 8.77493 0.0560472 8.77493C0.0252212 8.77493 0 8.90313 0 9.05983C0 9.21652 0.0252212 9.34473 0.0560472 9.34473C0.0868732 9.34473 0.112094 9.42165 0.112094 9.51567C0.112094 9.60969 0.137316 9.68661 0.168142 9.68661C0.198968 9.68661 0.224189 9.76353 0.224189 9.85755C0.224189 9.95157 0.24941 10.0285 0.280236 10.0285C0.311062 10.0285 0.336283 10.0798 0.336283 10.1425C0.336283 10.2051 0.361504 10.2564 0.39233 10.2564C0.423156 10.2564 0.448378 10.3077 0.448378 10.3704C0.448378 10.433 0.473599 10.4843 0.504425 10.4843C0.535251 10.4843 0.560472 10.53 0.560472 10.5857C0.560472 10.6415 0.610914 10.724 0.672566 10.7692C0.734218 10.8144 0.784661 10.897 0.784661 10.9528C0.784661 11.0085 0.809882 11.0541 0.840708 11.0541C0.871534 11.0541 0.896755 11.0998 0.896755 11.1555C0.896755 11.2113 0.947198 11.2938 1.00885 11.339C1.0705 11.3842 1.12094 11.4611 1.12094 11.51C1.12094 11.5588 1.17139 11.6357 1.23304 11.6809C1.29469 11.7261 1.34513 11.803 1.34513 11.8519C1.34513 11.9007 1.39558 11.9776 1.45723 12.0228C1.51888 12.068 1.56932 12.1403 1.56932 12.1835C1.56932 12.2266 1.64499 12.3338 1.73746 12.4217C1.82994 12.5095 1.9056 12.6167 1.9056 12.6598C1.9056 12.703 1.95605 12.7753 2.0177 12.8205C2.07935 12.8657 2.12979 12.9426 2.12979 12.9915C2.12979 13.0403 2.18024 13.1172 2.24189 13.1624C2.30354 13.2076 2.35398 13.2799 2.35398 13.3231C2.35398 13.3662 2.42965 13.4734 2.52212 13.5613C2.6146 13.6491 2.69027 13.7563 2.69027 13.7994C2.69027 13.8426 2.74071 13.9149 2.80236 13.9601C2.86401 14.0053 2.91445 14.0822 2.91445 14.1311C2.91445 14.1799 2.9649 14.2568 3.02655 14.302C3.0882 14.3472 3.13864 14.4241 3.13864 14.4729C3.13864 14.5218 3.18909 14.5987 3.25074 14.6439C3.31239 14.6891 3.36283 14.766 3.36283 14.8148C3.36283 14.8636 3.41327 14.9406 3.47493 14.9858C3.53658 15.0309 3.58702 15.1135 3.58702 15.1693C3.58702 15.225 3.61224 15.2707 3.64307 15.2707C3.67389 15.2707 3.69911 15.3163 3.69911 15.372C3.69911 15.4278 3.74956 15.5104 3.81121 15.5556C3.87286 15.6007 3.9233 15.6777 3.9233 15.7265C3.9233 15.7753 3.97375 15.8523 4.0354 15.8974C4.09705 15.9426 4.14749 16.0252 4.14749 16.081C4.14749 16.1367 4.17271 16.1823 4.20354 16.1823C4.23437 16.1823 4.25959 16.2336 4.25959 16.2963C4.25959 16.359 4.28481 16.4103 4.31563 16.4103C4.34646 16.4103 4.37168 16.4615 4.37168 16.5242C4.37168 16.5869 4.3969 16.6382 4.42773 16.6382C4.45855 16.6382 4.48378 16.6895 4.48378 16.7521C4.48378 16.8148 4.509 16.8661 4.53982 16.8661C4.57065 16.8661 4.59587 16.9174 4.59587 16.9801C4.59587 17.0427 4.62109 17.094 4.65192 17.094C4.68274 17.094 4.70796 17.1453 4.70796 17.208C4.70796 17.2707 4.73319 17.3219 4.76401 17.3219C4.79484 17.3219 4.82006 17.3732 4.82006 17.4359C4.82006 17.4986 4.84528 17.5499 4.87611 17.5499C4.90693 17.5499 4.93215 17.6011 4.93215 17.6638C4.93215 17.7265 4.95738 17.7778 4.9882 17.7778C5.01903 17.7778 5.04425 17.8547 5.04425 17.9487C5.04425 18.0427 5.06947 18.1197 5.1003 18.1197C5.13112 18.1197 5.15634 18.1709 5.15634 18.2336C5.15634 18.2963 5.18156 18.3476 5.21239 18.3476C5.24322 18.3476 5.26844 18.4245 5.26844 18.5185C5.26844 18.6125 5.29366 18.6895 5.32448 18.6895C5.35531 18.6895 5.38053 18.7664 5.38053 18.8604C5.38053 18.9544 5.40575 19.0313 5.43658 19.0313C5.4674 19.0313 5.49263 19.1595 5.49263 19.3162C5.49263 19.4729 5.51785 19.6011 5.54867 19.6011C5.5795 19.6011 5.60472 19.7293 5.60472 19.886C5.60472 20.0427 5.62994 20.1709 5.66077 20.1709C5.69193 20.1709 5.71681 20.3229 5.71681 20.5128C5.71681 20.7027 5.7417 20.8547 5.77286 20.8547C5.80402 20.8547 5.82891 21.0067 5.82891 21.1966C5.82891 21.3865 5.85379 21.5385 5.88496 21.5385C5.91578 21.5385 5.941 21.641 5.941 21.7664C5.941 21.8917 5.96622 21.9943 5.99705 21.9943C6.02788 21.9943 6.0531 22.1225 6.0531 22.2792C6.0531 22.4359 6.07832 22.5641 6.10914 22.5641C6.13997 22.5641 6.16519 22.6667 6.16519 22.792C6.16519 22.9174 6.19041 23.0199 6.22124 23.0199C6.25206 23.0199 6.27729 23.1225 6.27729 23.2479C6.27729 23.3732 6.30251 23.4758 6.33333 23.4758C6.36416 23.4758 6.38938 23.5783 6.38938 23.7037C6.38938 23.8291 6.4146 23.9316 6.44543 23.9316C6.47625 23.9316 6.50147 24.0085 6.50147 24.1026C6.50147 24.1966 6.5267 24.2735 6.55752 24.2735C6.58835 24.2735 6.61357 24.3504 6.61357 24.4444C6.61357 24.5385 6.63879 24.6154 6.66962 24.6154C6.70044 24.6154 6.72566 24.6923 6.72566 24.7863C6.72566 24.8803 6.75089 24.9573 6.78171 24.9573C6.81254 24.9573 6.83776 25.0085 6.83776 25.0712C6.83776 25.1339 6.86298 25.1852 6.89381 25.1852C6.92463 25.1852 6.94985 25.2621 6.94985 25.3561C6.94985 25.4501 6.97507 25.5271 7.0059 25.5271C7.03673 25.5271 7.06195 25.5783 7.06195 25.641C7.06195 25.7037 7.08717 25.755 7.11799 25.755C7.14882 25.755 7.17404 25.8063 7.17404 25.8689C7.17404 25.9316 7.19926 25.9829 7.23009 25.9829C7.26091 25.9829 7.28614 26.0285 7.28614 26.0843C7.28614 26.1401 7.33658 26.2226 7.39823 26.2678C7.45988 26.313 7.51032 26.3956 7.51032 26.4513C7.51032 26.5071 7.53555 26.5527 7.56637 26.5527C7.5972 26.5527 7.62242 26.5915 7.62242 26.639C7.62242 26.7515 8.54787 27.6923 8.65851 27.6923C8.70519 27.6923 8.74336 27.718 8.74336 27.7493C8.74336 27.7806 8.79381 27.8063 8.85546 27.8063C8.91711 27.8063 8.96755 27.8319 8.96755 27.8633C8.96755 27.8946 9.01799 27.9202 9.07965 27.9202C9.1413 27.9202 9.19174 27.9459 9.19174 27.9772C9.19174 28.0085 9.2674 28.0342 9.35988 28.0342C9.45236 28.0342 9.52802 28.0598 9.52802 28.0912C9.52802 28.1244 9.71483 28.1481 9.9764 28.1481C10.238 28.1481 10.4248 28.1719 10.4248 28.2051C10.4248 28.2365 10.5509 28.2621 10.705 28.2621C10.8591 28.2621 10.9853 28.2365 10.9853 28.2051C10.9853 28.1699 11.2842 28.1481 11.7699 28.1481C12.2557 28.1481 12.5546 28.1264 12.5546 28.0912C12.5546 28.058 12.7414 28.0342 13.0029 28.0342C13.4139 28.0342 13.4513 28.0247 13.4513 27.9202C13.4513 27.8576 13.4765 27.8063 13.5074 27.8063C13.5382 27.8063 13.5634 27.7606 13.5634 27.7049C13.5634 27.6491 13.6139 27.5666 13.6755 27.5214C13.7372 27.4762 13.7876 27.3993 13.7876 27.3504C13.7876 27.3016 13.8381 27.2247 13.8997 27.1795C13.9614 27.1343 14.0118 27.062 14.0118 27.0188C14.0118 26.9757 14.0875 26.8684 14.1799 26.7806C14.2724 26.6928 14.3481 26.5856 14.3481 26.5425C14.3481 26.4993 14.3985 26.427 14.4602 26.3818C14.5218 26.3366 14.5723 26.2643 14.5723 26.2211C14.5723 26.1779 14.6479 26.0707 14.7404 25.9829C14.8329 25.8951 14.9086 25.7925 14.9086 25.755C14.9086 25.7174 14.9842 25.6149 15.0767 25.5271C15.1692 25.4393 15.2448 25.3372 15.2448 25.3003C15.2448 25.2634 15.3457 25.1347 15.469 25.0142C15.5923 24.8938 15.6932 24.7651 15.6932 24.7282C15.6932 24.6913 15.7689 24.5892 15.8614 24.5014C15.9538 24.4136 16.0295 24.3064 16.0295 24.2632C16.0295 24.2201 16.0799 24.1477 16.1416 24.1026C16.2032 24.0574 16.2537 23.9851 16.2537 23.9419C16.2537 23.8987 16.3294 23.7915 16.4218 23.7037C16.5143 23.6159 16.59 23.503 16.59 23.4529C16.59 23.4028 16.6152 23.3618 16.646 23.3618C16.6768 23.3618 16.7021 23.3162 16.7021 23.2605C16.7021 23.2047 16.7525 23.1221 16.8142 23.0769C16.8758 23.0317 16.9263 22.9548 16.9263 22.906C16.9263 22.8572 16.9767 22.7802 17.0383 22.735C17.1 22.6899 17.1504 22.6129 17.1504 22.5641C17.1504 22.5153 17.2009 22.4383 17.2625 22.3932C17.3242 22.348 17.3746 22.2654 17.3746 22.2096C17.3746 22.1539 17.3999 22.1083 17.4307 22.1083C17.4615 22.1083 17.4867 22.057 17.4867 21.9943C17.4867 21.9316 17.5119 21.8803 17.5428 21.8803C17.5736 21.8803 17.5988 21.8291 17.5988 21.7664C17.5988 21.7037 17.624 21.6524 17.6549 21.6524C17.6857 21.6524 17.7109 21.6011 17.7109 21.5385C17.7109 21.4758 17.7361 21.4245 17.767 21.4245C17.7978 21.4245 17.823 21.3732 17.823 21.3105C17.823 21.2479 17.8482 21.1966 17.8791 21.1966C17.9099 21.1966 17.9351 21.1197 17.9351 21.0256C17.9351 20.9316 17.9603 20.8547 17.9911 20.8547C18.022 20.8547 18.0472 20.8034 18.0472 20.7407C18.0472 20.6294 18.0098 20.6268 16.4218 20.6268C15.3756 20.6268 14.7965 20.6065 14.7965 20.5698C14.7965 20.5366 14.6097 20.5128 14.3481 20.5128C14.0865 20.5128 13.8997 20.4891 13.8997 20.4558C13.8997 20.4245 13.7988 20.3989 13.6755 20.3989C13.5522 20.3989 13.4513 20.3732 13.4513 20.3419C13.4513 20.3105 13.3757 20.2849 13.2832 20.2849C13.1907 20.2849 13.115 20.2593 13.115 20.2279C13.115 20.1966 13.0646 20.1709 13.0029 20.1709C12.9413 20.1709 12.8909 20.1453 12.8909 20.114C12.8909 20.0826 12.8404 20.057 12.7788 20.057C12.7171 20.057 12.6667 20.0313 12.6667 20C12.6667 19.9687 12.6162 19.943 12.5546 19.943C12.4929 19.943 12.4425 19.9174 12.4425 19.886C12.4425 19.8547 12.3976 19.8291 12.3428 19.8291C12.2879 19.8291 12.2067 19.7778 12.1622 19.7151C12.1178 19.6524 12.0488 19.6011 12.0088 19.6011C11.9069 19.6011 11.0973 18.767 11.0973 18.6619C11.0973 18.6144 11.0721 18.5755 11.0413 18.5755C11.0105 18.5755 10.9853 18.5242 10.9853 18.4615C10.9853 18.3989 10.96 18.3476 10.9292 18.3476C10.8984 18.3476 10.8732 18.2963 10.8732 18.2336C10.8732 18.1709 10.8479 18.1197 10.8171 18.1197C10.7859 18.1197 10.7611 17.9677 10.7611 17.7778C10.7611 17.5879 10.7362 17.4359 10.705 17.4359C10.6742 17.4359 10.649 17.359 10.649 17.265C10.649 17.1709 10.6742 17.094 10.705 17.094C10.7358 17.094 10.7611 16.9915 10.7611 16.8661C10.7611 16.7407 10.7863 16.6382 10.8171 16.6382C10.8479 16.6382 10.8732 16.5869 10.8732 16.5242C10.8732 16.4615 10.8984 16.4103 10.9292 16.4103C10.96 16.4103 10.9853 16.359 10.9853 16.2963C10.9853 16.2336 11.0105 16.1823 11.0413 16.1823C11.0721 16.1823 11.0973 16.1432 11.0973 16.0954C11.0973 15.9893 11.5699 15.4986 11.672 15.4986C11.7122 15.4986 11.7815 15.4473 11.826 15.3846C11.8734 15.3177 11.9711 15.2707 12.0625 15.2707C12.1482 15.2707 12.2183 15.245 12.2183 15.2137C12.2183 15.1823 12.2687 15.1567 12.3304 15.1567C12.392 15.1567 12.4425 15.1311 12.4425 15.0997C12.4425 15.0659 12.648 15.0427 12.9469 15.0427C13.2458 15.0427 13.4513 15.0195 13.4513 14.9858C13.4513 14.9525 13.6381 14.9288 13.8997 14.9288C14.1613 14.9288 14.3481 14.905 14.3481 14.8718C14.3481 14.8405 14.449 14.8148 14.5723 14.8148C14.6956 14.8148 14.7965 14.7892 14.7965 14.7578C14.7965 14.7265 14.8721 14.7009 14.9646 14.7009C15.0571 14.7009 15.1327 14.6752 15.1327 14.6439C15.1327 14.6125 15.2084 14.5869 15.3009 14.5869C15.3934 14.5869 15.469 14.5613 15.469 14.5299C15.469 14.4986 15.5447 14.4729 15.6372 14.4729C15.7296 14.4729 15.8053 14.4473 15.8053 14.416C15.8053 14.3846 15.881 14.359 15.9735 14.359C16.0659 14.359 16.1416 14.3333 16.1416 14.302C16.1416 14.2707 16.2173 14.245 16.3097 14.245C16.4022 14.245 16.4779 14.2194 16.4779 14.188C16.4779 14.1567 16.5535 14.1311 16.646 14.1311C16.7385 14.1311 16.8142 14.1054 16.8142 14.0741C16.8142 14.0427 16.8646 14.0171 16.9263 14.0171C16.9879 14.0171 17.0383 13.9915 17.0383 13.9601C17.0383 13.9288 17.0888 13.9031 17.1504 13.9031C17.2121 13.9031 17.2625 13.8775 17.2625 13.8462C17.2625 13.8148 17.3382 13.7892 17.4307 13.7892C17.5232 13.7892 17.5988 13.7635 17.5988 13.7322C17.5988 13.7009 17.6493 13.6752 17.7109 13.6752C17.7981 13.6752 17.823 13.6372 17.823 13.5043C17.823 13.4103 17.8482 13.3333 17.8791 13.3333C17.9155 13.3333 17.9351 12.5546 17.9351 11.1111C17.9351 9.66764 17.9547 8.88889 17.9911 8.88889C18.0271 8.88889 18.0472 8.33806 18.0472 7.35043C18.0472 6.36279 18.0673 5.81197 18.1032 5.81197C18.1359 5.81197 18.1593 5.62205 18.1593 5.35613C18.1593 5.0902 18.1827 4.90029 18.2153 4.90029C18.2486 4.90029 18.2714 4.69134 18.2714 4.38746C18.2714 4.08359 18.2942 3.87464 18.3274 3.87464C18.3627 3.87464 18.3835 3.49476 18.3835 2.849C18.3835 2.20325 18.3627 1.82336 18.3274 1.82336C18.2966 1.82336 18.2714 1.77208 18.2714 1.7094C18.2714 1.64672 18.2462 1.59544 18.2153 1.59544C18.1845 1.59544 18.1593 1.55516 18.1593 1.50593C18.1593 1.39077 18.0243 1.25356 17.9111 1.25356C17.8626 1.25356 17.823 1.22792 17.823 1.19658C17.823 1.16524 17.7726 1.1396 17.7109 1.1396C17.6493 1.1396 17.5988 1.11396 17.5988 1.08262C17.5988 1.04969 17.4209 1.02564 17.177 1.02564H16.7551L16.5044 1.28057C16.3398 1.44792 16.2537 1.5849 16.2537 1.67943C16.2537 1.75858 16.2285 1.82336 16.1976 1.82336C16.1668 1.82336 16.1416 1.87464 16.1416 1.93732C16.1416 2 16.1164 2.05128 16.0855 2.05128C16.0547 2.05128 16.0295 2.15385 16.0295 2.2792C16.0295 2.40456 16.0043 2.50712 15.9735 2.50712C15.9426 2.50712 15.9174 2.60969 15.9174 2.73504C15.9174 2.8604 15.8922 2.96296 15.8614 2.96296C15.8305 2.96296 15.8053 3.09117 15.8053 3.24786C15.8053 3.40456 15.7801 3.53276 15.7493 3.53276C15.7181 3.53276 15.6932 3.68473 15.6932 3.87464C15.6932 4.06456 15.6683 4.21652 15.6372 4.21652C15.606 4.21652 15.5811 4.36849 15.5811 4.5584C15.5811 4.74832 15.5562 4.90029 15.5251 4.90029C15.4939 4.90029 15.469 5.05225 15.469 5.24217C15.469 5.43208 15.4441 5.58405 15.413 5.58405C15.3822 5.58405 15.3569 5.71225 15.3569 5.86895C15.3569 6.02564 15.3317 6.15385 15.3009 6.15385C15.2701 6.15385 15.2448 6.28205 15.2448 6.43875C15.2448 6.59544 15.2196 6.72365 15.1888 6.72365C15.158 6.72365 15.1327 6.85185 15.1327 7.00855C15.1327 7.16524 15.1075 7.29345 15.0767 7.29345C15.0459 7.29345 15.0206 7.42165 15.0206 7.57835C15.0206 7.73504 14.9954 7.86325 14.9646 7.86325C14.9338 7.86325 14.9086 7.96581 14.9086 8.09117C14.9086 8.21653 14.8833 8.31909 14.8525 8.31909C14.8213 8.31909 14.7965 8.47106 14.7965 8.66097C14.7965 8.85088 14.7716 9.00285 14.7404 9.00285C14.7096 9.00285 14.6844 9.13105 14.6844 9.28775C14.6844 9.44444 14.6591 9.57265 14.6283 9.57265C14.5975 9.57265 14.5723 9.70086 14.5723 9.85755C14.5723 10.0142 14.5471 10.1425 14.5162 10.1425C14.4854 10.1425 14.4602 10.2707 14.4602 10.4274C14.4602 10.584 14.435 10.7123 14.4041 10.7123C14.3733 10.7123 14.3481 10.8148 14.3481 10.9402C14.3481 11.0655 14.3229 11.1681 14.292 11.1681C14.2612 11.1681 14.236 11.234 14.236 11.3146C14.236 11.3952 14.2 11.4978 14.1559 11.5425C14.0641 11.6359 13.8997 11.6516 13.8997 11.567C13.8997 11.5356 13.8608 11.51 13.8131 11.51C13.701 11.51 13.4513 11.2562 13.4513 11.1422C13.4513 11.0937 13.4261 11.0541 13.3953 11.0541C13.3641 11.0541 13.3392 10.9022 13.3392 10.7123C13.3392 10.5223 13.3143 10.3704 13.2832 10.3704C13.2505 10.3704 13.2271 10.1805 13.2271 9.91453C13.2271 9.6486 13.2038 9.45869 13.1711 9.45869C13.1384 9.45869 13.115 9.26877 13.115 9.00285C13.115 8.73692 13.0917 8.54701 13.059 8.54701C13.027 8.54701 13.0029 8.37607 13.0029 8.14815C13.0029 7.92023 12.9789 7.74929 12.9469 7.74929C12.9149 7.74929 12.8909 7.57835 12.8909 7.35043C12.8909 7.12251 12.8668 6.95157 12.8348 6.95157C12.8036 6.95157 12.7788 6.7996 12.7788 6.60969C12.7788 6.41977 12.7539 6.26781 12.7227 6.26781C12.6907 6.26781 12.6667 6.09687 12.6667 5.86895C12.6667 5.64103 12.6426 5.47009 12.6106 5.47009C12.5795 5.47009 12.5546 5.31812 12.5546 5.12821C12.5546 4.93829 12.5297 4.78632 12.4985 4.78632C12.4674 4.78632 12.4425 4.63436 12.4425 4.44444C12.4425 4.25453 12.4176 4.10256 12.3864 4.10256C12.3553 4.10256 12.3304 3.9506 12.3304 3.76068C12.3304 3.57077 12.3055 3.4188 12.2743 3.4188C12.2435 3.4188 12.2183 3.2906 12.2183 3.1339C12.2183 2.97721 12.1931 2.849 12.1622 2.849C12.1314 2.849 12.1062 2.7208 12.1062 2.5641C12.1062 2.40741 12.081 2.2792 12.0501 2.2792C12.0193 2.2792 11.9941 2.151 11.9941 1.9943C11.9941 1.83761 11.9689 1.7094 11.9381 1.7094C11.9072 1.7094 11.882 1.60684 11.882 1.48148C11.882 1.35613 11.8568 1.25356 11.826 1.25356C11.7951 1.25356 11.7699 1.151 11.7699 1.02564C11.7699 0.900285 11.7447 0.797721 11.7139 0.797721C11.683 0.797721 11.6578 0.758576 11.6578 0.710769C11.6578 0.563818 11.1731 0.11396 11.0147 0.11396C10.9369 0.11396 10.8732 0.0883191 10.8732 0.0569801C10.8732 0.0252991 10.7237 0 10.5369 0C10.3501 0 10.2006 0.0252991 10.2006 0.0569801ZM25.8938 12.0228C25.8938 12.0541 25.7677 12.0798 25.6136 12.0798C25.4594 12.0798 25.3333 12.1054 25.3333 12.1368C25.3333 12.1681 25.2324 12.1937 25.1091 12.1937C24.9858 12.1937 24.885 12.2194 24.885 12.2507C24.885 12.2821 24.8093 12.3077 24.7168 12.3077C24.6243 12.3077 24.5487 12.3333 24.5487 12.3647C24.5487 12.396 24.4982 12.4217 24.4366 12.4217C24.3749 12.4217 24.3245 12.4473 24.3245 12.4786C24.3245 12.51 24.2488 12.5356 24.1563 12.5356C24.0639 12.5356 23.9882 12.5613 23.9882 12.5926C23.9882 12.6239 23.9378 12.6496 23.8761 12.6496C23.8145 12.6496 23.764 12.6752 23.764 12.7066C23.764 12.7379 23.7136 12.7635 23.6519 12.7635C23.5903 12.7635 23.5398 12.7892 23.5398 12.8205C23.5398 12.8519 23.4642 12.8775 23.3717 12.8775C23.2792 12.8775 23.2035 12.9031 23.2035 12.9345C23.2035 12.9658 23.1531 12.9915 23.0914 12.9915C23.0298 12.9915 22.9794 13.0171 22.9794 13.0484C22.9794 13.0798 22.9037 13.1054 22.8112 13.1054C22.7187 13.1054 22.6431 13.1311 22.6431 13.1624C22.6431 13.1937 22.5926 13.2194 22.531 13.2194C22.4693 13.2194 22.4189 13.245 22.4189 13.2764C22.4189 13.3077 22.3684 13.3333 22.3068 13.3333C22.2451 13.3333 22.1947 13.359 22.1947 13.3903C22.1947 13.4217 22.1442 13.4473 22.0826 13.4473C22.0209 13.4473 21.9705 13.4729 21.9705 13.5043C21.9705 13.5356 21.9201 13.5613 21.8584 13.5613C21.7968 13.5613 21.7463 13.5869 21.7463 13.6182C21.7463 13.6496 21.6959 13.6752 21.6342 13.6752C21.5726 13.6752 21.5221 13.7009 21.5221 13.7322C21.5221 13.7635 21.4465 13.7892 21.354 13.7892C21.2615 13.7892 21.1858 13.8148 21.1858 13.8462C21.1858 13.8775 21.1354 13.9031 21.0737 13.9031C21.0121 13.9031 20.9617 13.9288 20.9617 13.9601C20.9617 13.9915 20.9112 14.0171 20.8496 14.0171C20.7879 14.0171 20.7375 14.0427 20.7375 14.0741C20.7375 14.1054 20.687 14.1311 20.6254 14.1311C20.5637 14.1311 20.5133 14.1567 20.5133 14.188C20.5133 14.2194 20.4628 14.245 20.4012 14.245C20.3395 14.245 20.2891 14.2707 20.2891 14.302C20.2891 14.3333 20.2386 14.359 20.177 14.359C20.1153 14.359 20.0649 14.3846 20.0649 14.416C20.0649 14.4473 20.0145 14.4729 19.9528 14.4729C19.8912 14.4729 19.8407 14.4986 19.8407 14.5299C19.8407 14.5613 19.7903 14.5869 19.7286 14.5869C19.667 14.5869 19.6165 14.6125 19.6165 14.6439C19.6165 14.6752 19.5661 14.7009 19.5044 14.7009C19.4428 14.7009 19.3923 14.7265 19.3923 14.7578C19.3923 14.7892 19.3167 14.8148 19.2242 14.8148C19.1317 14.8148 19.056 14.8405 19.056 14.8718C19.056 14.9031 19.0056 14.9288 18.944 14.9288C18.8823 14.9288 18.8319 14.9544 18.8319 14.9858C18.8319 15.0171 18.7814 15.0427 18.7198 15.0427C18.6581 15.0427 18.6077 15.0684 18.6077 15.0997C18.6077 15.1311 18.5572 15.1567 18.4956 15.1567C18.4339 15.1567 18.3835 15.1823 18.3835 15.2137C18.3835 15.245 18.333 15.2707 18.2714 15.2707C18.2097 15.2707 18.1593 15.2963 18.1593 15.3276C18.1593 15.359 18.0836 15.3846 17.9911 15.3846C17.8987 15.3846 17.823 15.4103 17.823 15.4416C17.823 15.4729 17.7726 15.4986 17.7109 15.4986C17.6493 15.4986 17.5988 15.5242 17.5988 15.5556C17.5988 15.5869 17.5484 15.6125 17.4867 15.6125C17.4251 15.6125 17.3746 15.6382 17.3746 15.6695C17.3746 15.7009 17.299 15.7265 17.2065 15.7265C17.114 15.7265 17.0383 15.7521 17.0383 15.7835C17.0383 15.8148 16.9879 15.8405 16.9263 15.8405C16.8646 15.8405 16.8142 15.8661 16.8142 15.8974C16.8142 15.9288 16.7385 15.9544 16.646 15.9544C16.5535 15.9544 16.4779 15.9801 16.4779 16.0114C16.4779 16.0427 16.4022 16.0684 16.3097 16.0684C16.2173 16.0684 16.1416 16.094 16.1416 16.1254C16.1416 16.1567 16.0659 16.1823 15.9735 16.1823C15.881 16.1823 15.8053 16.208 15.8053 16.2393C15.8053 16.2707 15.7044 16.2963 15.5811 16.2963C15.4578 16.2963 15.3569 16.3219 15.3569 16.3533C15.3569 16.3846 15.256 16.4103 15.1327 16.4103C15.0094 16.4103 14.9086 16.4359 14.9086 16.4672C14.9086 16.5014 14.6844 16.5242 14.3481 16.5242C14.0118 16.5242 13.7876 16.547 13.7876 16.5812C13.7876 16.6137 13.6195 16.6382 13.3953 16.6382C13.1711 16.6382 13.0029 16.6626 13.0029 16.6952C13.0029 16.7265 12.9381 16.7521 12.8589 16.7521C12.6967 16.7521 12.5546 16.87 12.5546 17.0045C12.5546 17.0537 12.5294 17.094 12.4985 17.094C12.4677 17.094 12.4425 17.1966 12.4425 17.3219C12.4425 17.4473 12.4677 17.5499 12.4985 17.5499C12.5294 17.5499 12.5546 17.6146 12.5546 17.6938C12.5546 17.8548 12.9971 18.3476 13.1416 18.3476C13.1886 18.3476 13.2271 18.3732 13.2271 18.4046C13.2271 18.4359 13.2776 18.4615 13.3392 18.4615C13.4009 18.4615 13.4513 18.4872 13.4513 18.5185C13.4513 18.5499 13.5018 18.5755 13.5634 18.5755C13.6251 18.5755 13.6755 18.6011 13.6755 18.6325C13.6755 18.6638 13.7512 18.6895 13.8437 18.6895C13.9361 18.6895 14.0118 18.7151 14.0118 18.7464C14.0118 18.7778 14.1379 18.8034 14.292 18.8034C14.4462 18.8034 14.5723 18.8291 14.5723 18.8604C14.5723 18.896 14.9086 18.9174 15.469 18.9174C16.0295 18.9174 16.3658 18.896 16.3658 18.8604C16.3658 18.8266 16.5713 18.8034 16.8702 18.8034C17.1691 18.8034 17.3746 18.7802 17.3746 18.7464C17.3746 18.7114 17.6549 18.6895 18.1032 18.6895C18.5516 18.6895 18.8319 18.7114 18.8319 18.7464C18.8319 18.7778 18.958 18.8034 19.1121 18.8034C19.2662 18.8034 19.3923 18.8291 19.3923 18.8604C19.3923 18.8917 19.431 18.9174 19.4783 18.9174C19.5256 18.9174 19.6517 19.0063 19.7585 19.1149L19.9528 19.3124V19.9127C19.9528 20.2748 19.9305 20.5128 19.8968 20.5128C19.8659 20.5128 19.8407 20.5897 19.8407 20.6838C19.8407 20.7778 19.8155 20.8547 19.7847 20.8547C19.7538 20.8547 19.7286 20.9316 19.7286 21.0256C19.7286 21.1197 19.7034 21.1966 19.6726 21.1966C19.6417 21.1966 19.6165 21.2735 19.6165 21.3675C19.6165 21.4615 19.5913 21.5385 19.5605 21.5385C19.5296 21.5385 19.5044 21.5897 19.5044 21.6524C19.5044 21.7151 19.4792 21.7664 19.4484 21.7664C19.4176 21.7664 19.3923 21.8177 19.3923 21.8803C19.3923 21.943 19.3671 21.9943 19.3363 21.9943C19.3055 21.9943 19.2802 22.0456 19.2802 22.1083C19.2802 22.1709 19.255 22.2222 19.2242 22.2222C19.1934 22.2222 19.1681 22.2735 19.1681 22.3362C19.1681 22.3989 19.1429 22.4501 19.1121 22.4501C19.0813 22.4501 19.056 22.5014 19.056 22.5641C19.056 22.6268 19.0308 22.6781 19 22.6781C18.9692 22.6781 18.944 22.7293 18.944 22.792C18.944 22.8547 18.9187 22.906 18.8879 22.906C18.8571 22.906 18.8319 22.9573 18.8319 23.0199C18.8319 23.0826 18.8066 23.1339 18.7758 23.1339C18.745 23.1339 18.7198 23.1795 18.7198 23.2353C18.7198 23.2911 18.6693 23.3736 18.6077 23.4188C18.546 23.464 18.4956 23.5409 18.4956 23.5897C18.4956 23.6386 18.4451 23.7155 18.3835 23.7607C18.3218 23.8059 18.2714 23.8884 18.2714 23.9442C18.2714 23.9999 18.2462 24.0456 18.2153 24.0456C18.1845 24.0456 18.1593 24.0912 18.1593 24.147C18.1593 24.2027 18.1089 24.2853 18.0472 24.3305C17.9855 24.3757 17.9351 24.448 17.9351 24.4912C17.9351 24.5343 17.8594 24.6415 17.767 24.7293C17.6745 24.8172 17.5988 24.9244 17.5988 24.9675C17.5988 25.0107 17.5484 25.083 17.4867 25.1282C17.4251 25.1734 17.3746 25.2457 17.3746 25.2889C17.3746 25.332 17.299 25.4393 17.2065 25.5271C17.114 25.6149 17.0383 25.7174 17.0383 25.755C17.0383 25.7925 16.9627 25.8951 16.8702 25.9829C16.7777 26.0707 16.7021 26.1733 16.7021 26.2108C16.7021 26.2484 16.6264 26.3509 16.5339 26.4387C16.4414 26.5266 16.3658 26.6291 16.3658 26.6667C16.3658 26.7042 16.2901 26.8068 16.1976 26.8946C16.1052 26.9824 16.0295 27.085 16.0295 27.1225C16.0295 27.1601 15.9538 27.2626 15.8614 27.3504C15.7689 27.4382 15.6932 27.5408 15.6932 27.5784C15.6932 27.6159 15.6176 27.7185 15.5251 27.8063C15.4326 27.8941 15.3569 27.9966 15.3569 28.0342C15.3569 28.0717 15.2813 28.1743 15.1888 28.2621C15.0963 28.3499 15.0206 28.4525 15.0206 28.49C15.0206 28.5276 14.945 28.6301 14.8525 28.718C14.76 28.8058 14.6844 28.9078 14.6844 28.9447C14.6844 28.9816 14.5835 29.1103 14.4602 29.2308C14.3369 29.3512 14.236 29.4794 14.236 29.5157C14.236 29.5519 14.1351 29.6801 14.0118 29.8006C13.8885 29.921 13.7876 30.0544 13.7876 30.0969C13.7876 30.1395 13.7372 30.2112 13.6755 30.2564C13.6139 30.3016 13.5634 30.3733 13.5634 30.4159C13.5634 30.4585 13.4625 30.5918 13.3392 30.7123C13.2159 30.8327 13.115 30.9614 13.115 30.9983C13.115 31.0352 13.0394 31.1373 12.9469 31.2251C12.8544 31.3129 12.7788 31.4201 12.7788 31.4632C12.7788 31.5064 12.7283 31.5787 12.6667 31.6239C12.605 31.6691 12.5546 31.7414 12.5546 31.7846C12.5546 31.8278 12.4789 31.935 12.3864 32.0228C12.294 32.1106 12.2183 32.2235 12.2183 32.2736C12.2183 32.3237 12.1931 32.3647 12.1622 32.3647C12.1314 32.3647 12.1062 32.4103 12.1062 32.466C12.1062 32.5218 12.0558 32.6044 11.9941 32.6496C11.9324 32.6948 11.882 32.7773 11.882 32.8331C11.882 32.8888 11.8568 32.9345 11.826 32.9345C11.794 32.9345 11.7699 33.1054 11.7699 33.3333C11.7699 33.5613 11.794 33.7322 11.826 33.7322C11.8568 33.7322 11.882 33.7718 11.882 33.8202C11.882 33.9279 12.1291 34.188 12.2314 34.188C12.2722 34.188 12.342 34.2393 12.3864 34.302C12.4536 34.3967 12.5315 34.416 12.8472 34.416C13.0631 34.416 13.2271 34.3913 13.2271 34.359C13.2271 34.3276 13.2776 34.302 13.3392 34.302C13.4009 34.302 13.4513 34.2764 13.4513 34.245C13.4513 34.2137 13.4916 34.188 13.5409 34.188C13.5902 34.188 13.7012 34.1111 13.7876 34.0171C13.874 33.9231 13.9725 33.8462 14.0065 33.8462C14.1016 33.8462 17.4867 30.3825 17.4867 30.2851C17.4867 30.2374 17.5364 30.1994 17.5988 30.1994C17.6618 30.1994 17.7109 30.1614 17.7109 30.1128C17.7109 30.0652 18.1649 29.5657 18.7198 29.0029C19.2746 28.44 19.7286 27.9522 19.7286 27.9188C19.7286 27.8324 19.9894 27.5784 20.078 27.5784C20.1188 27.5784 20.1886 27.5271 20.233 27.4644C20.2775 27.4017 20.3587 27.3504 20.4136 27.3504C20.4684 27.3504 20.5133 27.3248 20.5133 27.2934C20.5133 27.207 20.7906 27.2254 20.8816 27.3179C20.9725 27.4103 20.9929 27.9202 20.9056 27.9202C20.8748 27.9202 20.8496 28.0228 20.8496 28.1481C20.8496 28.2735 20.8243 28.3761 20.7935 28.3761C20.7627 28.3761 20.7375 28.4274 20.7375 28.49C20.7375 28.5527 20.7122 28.604 20.6814 28.604C20.6506 28.604 20.6254 28.6553 20.6254 28.718C20.6254 28.7806 20.6001 28.8319 20.5693 28.8319C20.5385 28.8319 20.5133 28.8832 20.5133 28.9459C20.5133 29.0085 20.4881 29.0598 20.4572 29.0598C20.4264 29.0598 20.4012 29.1111 20.4012 29.1738C20.4012 29.2365 20.376 29.2878 20.3451 29.2878C20.3143 29.2878 20.2891 29.339 20.2891 29.4017C20.2891 29.4644 20.2639 29.5157 20.233 29.5157C20.2022 29.5157 20.177 29.567 20.177 29.6296C20.177 29.6923 20.1518 29.7436 20.1209 29.7436C20.0901 29.7436 20.0649 29.7949 20.0649 29.8576C20.0649 29.9202 20.0397 29.9715 20.0089 29.9715C19.978 29.9715 19.9528 30.0228 19.9528 30.0855C19.9528 30.1481 19.9276 30.1994 19.8968 30.1994C19.8659 30.1994 19.8407 30.2507 19.8407 30.3134C19.8407 30.3761 19.8155 30.4274 19.7847 30.4274C19.7538 30.4274 19.7286 30.4986 19.7286 30.5857C19.7286 30.6787 19.6823 30.778 19.6165 30.8262C19.5507 30.8745 19.5044 30.9737 19.5044 31.0667C19.5044 31.1538 19.4792 31.2251 19.4484 31.2251C19.4176 31.2251 19.3923 31.2764 19.3923 31.339C19.3923 31.4017 19.3671 31.453 19.3363 31.453C19.3055 31.453 19.2802 31.5043 19.2802 31.567C19.2802 31.6296 19.255 31.6809 19.2242 31.6809C19.1934 31.6809 19.1681 31.7322 19.1681 31.7949C19.1681 31.8576 19.1429 31.9088 19.1121 31.9088C19.0813 31.9088 19.056 31.9601 19.056 32.0228C19.056 32.0855 19.0308 32.1368 19 32.1368C18.9692 32.1368 18.944 32.2137 18.944 32.3077C18.944 32.4017 18.9187 32.4786 18.8879 32.4786C18.8571 32.4786 18.8319 32.5299 18.8319 32.5926C18.8319 32.6553 18.8066 32.7066 18.7758 32.7066C18.745 32.7066 18.7198 32.7578 18.7198 32.8205C18.7198 32.8832 18.6945 32.9345 18.6637 32.9345C18.6329 32.9345 18.6077 32.9858 18.6077 33.0484C18.6077 33.1111 18.5824 33.1624 18.5516 33.1624C18.5208 33.1624 18.4956 33.2137 18.4956 33.2764C18.4956 33.339 18.4704 33.3903 18.4395 33.3903C18.4087 33.3903 18.3835 33.4416 18.3835 33.5043C18.3835 33.567 18.3583 33.6182 18.3274 33.6182C18.2966 33.6182 18.2714 33.6952 18.2714 33.7892C18.2714 33.8832 18.2462 33.9601 18.2153 33.9601C18.1845 33.9601 18.1593 34.0114 18.1593 34.0741C18.1593 34.1368 18.1341 34.188 18.1032 34.188C18.0724 34.188 18.0472 34.2393 18.0472 34.302C18.0472 34.3647 18.022 34.416 17.9911 34.416C17.9603 34.416 17.9351 34.4672 17.9351 34.5299C17.9351 34.5926 17.9099 34.6439 17.8791 34.6439C17.8482 34.6439 17.823 34.7208 17.823 34.8148C17.823 34.9088 17.7978 34.9858 17.767 34.9858C17.7361 34.9858 17.7109 35.037 17.7109 35.0997C17.7109 35.1624 17.6857 35.2137 17.6549 35.2137C17.624 35.2137 17.5988 35.265 17.5988 35.3276C17.5988 35.3903 17.5736 35.4416 17.5428 35.4416C17.5119 35.4416 17.4867 35.5185 17.4867 35.6125C17.4867 35.7066 17.4615 35.7835 17.4307 35.7835C17.3999 35.7835 17.3746 35.8348 17.3746 35.8974C17.3746 35.9601 17.3494 36.0114 17.3186 36.0114C17.2878 36.0114 17.2625 36.0883 17.2625 36.1823C17.2625 36.2764 17.2373 36.3533 17.2065 36.3533C17.1757 36.3533 17.1504 36.4302 17.1504 36.5242C17.1504 36.6182 17.1252 36.6952 17.0944 36.6952C17.0636 36.6952 17.0383 36.7721 17.0383 36.8661C17.0383 36.9601 17.0131 37.037 16.9823 37.037C16.9515 37.037 16.9263 37.114 16.9263 37.208C16.9263 37.302 16.901 37.3789 16.8702 37.3789C16.8382 37.3789 16.8142 37.5499 16.8142 37.7778C16.8142 38.0057 16.8382 38.1766 16.8702 38.1766C16.901 38.1766 16.9263 38.2416 16.9263 38.321C16.9263 38.4815 17.2596 38.8604 17.4008 38.8604C17.4481 38.8604 17.4867 38.886 17.4867 38.9174C17.4867 38.9512 17.6923 38.9744 17.9911 38.9744C18.2901 38.9744 18.4956 38.9512 18.4956 38.9174C18.4956 38.886 18.5342 38.8604 18.5815 38.8604C18.6931 38.8604 19.056 38.4914 19.056 38.378C19.056 38.3299 19.0813 38.2906 19.1121 38.2906C19.1429 38.2906 19.1681 38.245 19.1681 38.1892C19.1681 38.1334 19.2186 38.0509 19.2802 38.0057C19.346 37.9574 19.3923 37.8582 19.3923 37.7652C19.3923 37.6781 19.4176 37.6068 19.4484 37.6068C19.4792 37.6068 19.5044 37.5556 19.5044 37.4929C19.5044 37.4302 19.5296 37.3789 19.5605 37.3789C19.5913 37.3789 19.6165 37.3276 19.6165 37.265C19.6165 37.2023 19.6417 37.151 19.6726 37.151C19.7034 37.151 19.7286 37.0997 19.7286 37.037C19.7286 36.9744 19.7538 36.9231 19.7847 36.9231C19.8155 36.9231 19.8407 36.8718 19.8407 36.8091C19.8407 36.7464 19.8659 36.6952 19.8968 36.6952C19.9276 36.6952 19.9528 36.6439 19.9528 36.5812C19.9528 36.5185 19.978 36.4672 20.0089 36.4672C20.0397 36.4672 20.0649 36.4216 20.0649 36.3659C20.0649 36.3101 20.1153 36.2275 20.177 36.1823C20.2386 36.1372 20.2891 36.0546 20.2891 35.9988C20.2891 35.9431 20.3143 35.8974 20.3451 35.8974C20.376 35.8974 20.4012 35.8462 20.4012 35.7835C20.4012 35.7208 20.4264 35.6695 20.4572 35.6695C20.4881 35.6695 20.5133 35.6182 20.5133 35.5556C20.5133 35.4929 20.5385 35.4416 20.5693 35.4416C20.6001 35.4416 20.6254 35.396 20.6254 35.3402C20.6254 35.2844 20.6758 35.2019 20.7375 35.1567C20.7991 35.1115 20.8496 35.0289 20.8496 34.9732C20.8496 34.9174 20.8748 34.8718 20.9056 34.8718C20.9364 34.8718 20.9617 34.8205 20.9617 34.7578C20.9617 34.6952 20.9869 34.6439 21.0177 34.6439C21.0485 34.6439 21.0737 34.5926 21.0737 34.5299C21.0737 34.4672 21.099 34.416 21.1298 34.416C21.1606 34.416 21.1858 34.3647 21.1858 34.302C21.1858 34.2393 21.2111 34.188 21.2419 34.188C21.2727 34.188 21.2979 34.1424 21.2979 34.0867C21.2979 34.0309 21.3484 33.9483 21.41 33.9031C21.4717 33.8579 21.5221 33.7754 21.5221 33.7196C21.5221 33.6639 21.5473 33.6182 21.5782 33.6182C21.609 33.6182 21.6342 33.567 21.6342 33.5043C21.6342 33.4416 21.6594 33.3903 21.6903 33.3903C21.7211 33.3903 21.7463 33.339 21.7463 33.2764C21.7463 33.2137 21.7715 33.1624 21.8024 33.1624C21.8332 33.1624 21.8584 33.1168 21.8584 33.061C21.8584 33.0052 21.9088 32.9227 21.9705 32.8775C22.0322 32.8323 22.0826 32.7497 22.0826 32.694C22.0826 32.6382 22.1078 32.5926 22.1386 32.5926C22.1695 32.5926 22.1947 32.5413 22.1947 32.4786C22.1947 32.416 22.2199 32.3647 22.2507 32.3647C22.2816 32.3647 22.3068 32.319 22.3068 32.2633C22.3068 32.2075 22.3572 32.125 22.4189 32.0798C22.4805 32.0346 22.531 31.9577 22.531 31.9088C22.531 31.86 22.5814 31.7831 22.6431 31.7379C22.7047 31.6927 22.7552 31.6101 22.7552 31.5544C22.7552 31.4986 22.7804 31.453 22.8112 31.453C22.842 31.453 22.8673 31.4074 22.8673 31.3516C22.8673 31.2958 22.9177 31.2133 22.9794 31.1681C23.041 31.1229 23.0914 31.0403 23.0914 30.9846C23.0914 30.9288 23.1167 30.8832 23.1475 30.8832C23.1783 30.8832 23.2035 30.8376 23.2035 30.7818C23.2035 30.726 23.254 30.6435 23.3156 30.5983C23.3773 30.5531 23.4277 30.4762 23.4277 30.4274C23.4277 30.3785 23.4782 30.3016 23.5398 30.2564C23.6015 30.2112 23.6519 30.1287 23.6519 30.0729C23.6519 30.0172 23.6771 29.9715 23.708 29.9715C23.7388 29.9715 23.764 29.9322 23.764 29.8842C23.764 29.7707 24.127 29.4017 24.2386 29.4017C24.2967 29.4017 24.3245 29.457 24.3245 29.5727C24.3245 29.6667 24.3497 29.7436 24.3805 29.7436C24.416 29.7436 24.4366 30.1425 24.4366 30.8262C24.4366 31.51 24.416 31.9088 24.3805 31.9088C24.3466 31.9088 24.3245 32.1557 24.3245 32.5356C24.3245 32.9155 24.3024 33.1624 24.2684 33.1624C24.2373 33.1624 24.2124 33.3144 24.2124 33.5043C24.2124 33.6942 24.1875 33.8462 24.1563 33.8462C24.1243 33.8462 24.1003 34.0171 24.1003 34.245C24.1003 34.4729 24.0763 34.6439 24.0442 34.6439C24.0131 34.6439 23.9882 34.7958 23.9882 34.9858C23.9882 35.1757 23.9633 35.3276 23.9322 35.3276C23.9002 35.3276 23.8761 35.4986 23.8761 35.7265C23.8761 35.9544 23.8521 36.1254 23.8201 36.1254C23.7874 36.1254 23.764 36.3153 23.764 36.5812C23.764 36.8471 23.7406 37.037 23.708 37.037C23.676 37.037 23.6519 37.208 23.6519 37.4359C23.6519 37.6638 23.6279 37.8348 23.5959 37.8348C23.5614 37.8348 23.5398 38.1197 23.5398 38.5755C23.5398 39.0313 23.5614 39.3162 23.5959 39.3162C23.6267 39.3162 23.6519 39.3556 23.6519 39.4036C23.6519 39.517 24.0149 39.886 24.1265 39.886C24.1737 39.886 24.2124 39.9117 24.2124 39.943C24.2124 39.9744 24.2881 40 24.3805 40C24.473 40 24.5487 39.9744 24.5487 39.943C24.5487 39.9117 24.6243 39.886 24.7168 39.886C24.8093 39.886 24.885 39.8604 24.885 39.8291C24.885 39.7977 24.9236 39.7721 24.9709 39.7721C25.0758 39.7721 25.4454 39.4061 25.4454 39.3022C25.4454 39.2611 25.4959 39.1905 25.5575 39.1453C25.6192 39.1001 25.6696 39.0176 25.6696 38.9618C25.6696 38.906 25.6948 38.8604 25.7257 38.8604C25.7565 38.8604 25.7817 38.7835 25.7817 38.6895C25.7817 38.5954 25.8069 38.5185 25.8378 38.5185C25.8689 38.5185 25.8938 38.3666 25.8938 38.1766C25.8938 37.9867 25.9187 37.8348 25.9499 37.8348C25.981 37.8348 26.0059 37.6828 26.0059 37.4929C26.0059 37.303 26.0308 37.151 26.0619 37.151C26.0931 37.151 26.118 36.999 26.118 36.8091C26.118 36.6192 26.1429 36.4672 26.174 36.4672C26.2052 36.4672 26.2301 36.3153 26.2301 36.1254C26.2301 35.9354 26.255 35.7835 26.2861 35.7835C26.317 35.7835 26.3422 35.6553 26.3422 35.4986C26.3422 35.3419 26.3674 35.2137 26.3982 35.2137C26.4294 35.2137 26.4543 35.0617 26.4543 34.8718C26.4543 34.6819 26.4792 34.5299 26.5103 34.5299C26.5415 34.5299 26.5664 34.378 26.5664 34.188C26.5664 33.9981 26.5913 33.8462 26.6224 33.8462C26.6532 33.8462 26.6785 33.7179 26.6785 33.5613C26.6785 33.4046 26.7037 33.2764 26.7345 33.2764C26.7657 33.2764 26.7906 33.1244 26.7906 32.9345C26.7906 32.7446 26.8154 32.5926 26.8466 32.5926C26.8774 32.5926 26.9027 32.4644 26.9027 32.3077C26.9027 32.151 26.9279 32.0228 26.9587 32.0228C26.9899 32.0228 27.0147 31.8708 27.0147 31.6809C27.0147 31.491 27.0396 31.339 27.0708 31.339C27.102 31.339 27.1268 31.1871 27.1268 30.9972C27.1268 30.8072 27.1517 30.6553 27.1829 30.6553C27.2137 30.6553 27.2389 30.5527 27.2389 30.4274C27.2389 30.302 27.2642 30.1994 27.295 30.1994C27.3258 30.1994 27.351 30.1225 27.351 30.0285C27.351 29.9345 27.3763 29.8576 27.4071 29.8576C27.4379 29.8576 27.4631 29.8182 27.4631 29.7702C27.4631 29.6568 27.8261 29.2878 27.9377 29.2878C27.9849 29.2878 28.0236 29.3134 28.0236 29.3447C28.0236 29.3761 28.074 29.4017 28.1357 29.4017C28.2104 29.4017 28.2478 29.4397 28.2478 29.5157C28.2478 29.5783 28.273 29.6296 28.3038 29.6296C28.3347 29.6296 28.3599 29.6809 28.3599 29.7436C28.3599 29.8063 28.3851 29.8576 28.4159 29.8576C28.4468 29.8576 28.472 29.9345 28.472 30.0285C28.472 30.1225 28.4972 30.1994 28.528 30.1994C28.5589 30.1994 28.5841 30.2764 28.5841 30.3704C28.5841 30.4644 28.6093 30.5413 28.6401 30.5413C28.6713 30.5413 28.6962 30.6933 28.6962 30.8832C28.6962 31.0731 28.7211 31.2251 28.7522 31.2251C28.7854 31.2251 28.8083 31.434 28.8083 31.7379C28.8083 32.0418 28.8311 32.2507 28.8643 32.2507C28.8992 32.2507 28.9204 32.5736 28.9204 33.1054C28.9204 33.6372 28.9415 33.9601 28.9764 33.9601C29.0109 33.9601 29.0324 34.245 29.0324 34.7009C29.0324 35.1567 29.054 35.4416 29.0885 35.4416C29.1197 35.4416 29.1445 35.5936 29.1445 35.7835C29.1445 35.9734 29.1694 36.1254 29.2006 36.1254C29.2314 36.1254 29.2566 36.2536 29.2566 36.4103C29.2566 36.567 29.2819 36.6952 29.3127 36.6952C29.3435 36.6952 29.3687 36.7721 29.3687 36.8661C29.3687 36.9601 29.394 37.037 29.4248 37.037C29.4556 37.037 29.4808 37.0766 29.4808 37.1251C29.4808 37.2391 29.7305 37.4929 29.8426 37.4929C29.8903 37.4929 29.9292 37.5185 29.9292 37.5499C29.9292 37.5824 30.0973 37.6068 30.3215 37.6068C30.5457 37.6068 30.7139 37.5824 30.7139 37.5499C30.7139 37.5185 30.7528 37.4929 30.8005 37.4929C30.9627 37.4929 31.1622 37.2271 31.1622 37.0111C31.1622 36.9 31.1875 36.8091 31.2183 36.8091C31.251 36.8091 31.2743 36.6192 31.2743 36.3533C31.2743 36.0874 31.2977 35.8974 31.3304 35.8974C31.3668 35.8974 31.3864 35.1377 31.3864 33.7322C31.3864 32.3267 31.3668 31.567 31.3304 31.567C31.2945 31.567 31.2743 31.0352 31.2743 30.0855C31.2743 29.1358 31.2945 28.604 31.3304 28.604C31.3631 28.604 31.3864 28.4141 31.3864 28.1481C31.3864 27.8822 31.4098 27.6923 31.4425 27.6923C31.4733 27.6923 31.4985 27.5641 31.4985 27.4074C31.4985 27.2507 31.5237 27.1225 31.5546 27.1225C31.5854 27.1225 31.6106 27.0199 31.6106 26.8946C31.6106 26.7692 31.6358 26.6667 31.6667 26.6667C31.6975 26.6667 31.7227 26.5897 31.7227 26.4957C31.7227 26.4017 31.7479 26.3248 31.7788 26.3248C31.8096 26.3248 31.8348 26.2479 31.8348 26.1538C31.8348 26.0598 31.86 25.9829 31.8909 25.9829C31.9217 25.9829 31.9469 25.906 31.9469 25.812C31.9469 25.718 31.9721 25.641 32.0029 25.641C32.0338 25.641 32.059 25.5897 32.059 25.5271C32.059 25.4644 32.0842 25.4131 32.115 25.4131C32.1459 25.4131 32.1711 25.3362 32.1711 25.2422C32.1711 25.1481 32.1963 25.0712 32.2271 25.0712C32.258 25.0712 32.2832 25.0199 32.2832 24.9573C32.2832 24.8946 32.3084 24.8433 32.3392 24.8433C32.3701 24.8433 32.3953 24.792 32.3953 24.7293C32.3953 24.6667 32.4205 24.6154 32.4513 24.6154C32.4822 24.6154 32.5074 24.5641 32.5074 24.5014C32.5074 24.4387 32.5326 24.3875 32.5634 24.3875C32.5942 24.3875 32.6195 24.3105 32.6195 24.2165C32.6195 24.1225 32.6447 24.0456 32.6755 24.0456C32.7063 24.0456 32.7316 23.9943 32.7316 23.9316C32.7316 23.8689 32.7568 23.8177 32.7876 23.8177C32.8184 23.8177 32.8437 23.7664 32.8437 23.7037C32.8437 23.641 32.8689 23.5897 32.8997 23.5897C32.9305 23.5897 32.9558 23.5128 32.9558 23.4188C32.9558 23.3248 32.981 23.2479 33.0118 23.2479C33.0426 23.2479 33.0678 23.1966 33.0678 23.1339C33.0678 23.0712 33.0931 23.0199 33.1239 23.0199C33.1547 23.0199 33.1799 22.9687 33.1799 22.906C33.1799 22.8433 33.2052 22.792 33.236 22.792C33.2668 22.792 33.292 22.7151 33.292 22.6211C33.292 22.5271 33.3173 22.4501 33.3481 22.4501C33.3789 22.4501 33.4041 22.3732 33.4041 22.2792C33.4041 22.1852 33.4294 22.1083 33.4602 22.1083C33.491 22.1083 33.5162 22.0313 33.5162 21.9373C33.5162 21.8433 33.5414 21.7664 33.5723 21.7664C33.6031 21.7664 33.6283 21.6895 33.6283 21.5954C33.6283 21.5014 33.6535 21.4245 33.6844 21.4245C33.7152 21.4245 33.7404 21.3476 33.7404 21.2536C33.7404 21.1595 33.7656 21.0826 33.7965 21.0826C33.8273 21.0826 33.8525 20.9801 33.8525 20.8547C33.8525 20.7293 33.8777 20.6268 33.9086 20.6268C33.9394 20.6268 33.9646 20.4986 33.9646 20.3419C33.9646 20.1852 33.9898 20.057 34.0206 20.057C34.0515 20.057 34.0767 19.9288 34.0767 19.7721C34.0767 19.6154 34.1019 19.4872 34.1327 19.4872C34.1682 19.4872 34.1888 19.0693 34.1888 18.3476C34.1888 17.6258 34.1682 17.208 34.1327 17.208C34.1019 17.208 34.0767 17.1311 34.0767 17.037C34.0767 16.943 34.0515 16.8661 34.0206 16.8661C33.9898 16.8661 33.9646 16.7892 33.9646 16.6952C33.9646 16.6011 33.9394 16.5242 33.9086 16.5242C33.8777 16.5242 33.8525 16.4853 33.8525 16.4377C33.8525 16.3324 33.1552 15.6125 33.0532 15.6125C33.0133 15.6125 32.9442 15.5613 32.8997 15.4986C32.8553 15.4359 32.774 15.3846 32.7192 15.3846C32.6644 15.3846 32.6195 15.359 32.6195 15.3276C32.6195 15.2963 32.5746 15.2707 32.5198 15.2707C32.4649 15.2707 32.3837 15.2194 32.3392 15.1567C32.2948 15.094 32.2191 15.0427 32.1711 15.0427C32.1231 15.0427 32.0474 14.9915 32.0029 14.9288C31.9585 14.8661 31.8773 14.8148 31.8224 14.8148C31.7676 14.8148 31.7227 14.7892 31.7227 14.7578C31.7227 14.7265 31.6778 14.7009 31.623 14.7009C31.5681 14.7009 31.4869 14.6496 31.4425 14.5869C31.398 14.5242 31.3224 14.4729 31.2743 14.4729C31.2263 14.4729 31.1506 14.4217 31.1062 14.359C31.0618 14.2963 30.9912 14.245 30.9493 14.245C30.9075 14.245 30.7763 14.1425 30.6578 14.0171C30.5393 13.8917 30.4145 13.7892 30.3804 13.7892C30.3464 13.7892 29.992 13.4558 29.5929 13.0484C29.1939 12.641 28.8288 12.3077 28.7817 12.3077C28.7347 12.3077 28.6962 12.2821 28.6962 12.2507C28.6962 12.2194 28.6457 12.1937 28.5841 12.1937C28.5224 12.1937 28.472 12.1681 28.472 12.1368C28.472 12.1054 28.3711 12.0798 28.2478 12.0798C28.1245 12.0798 28.0236 12.0541 28.0236 12.0228C28.0236 11.9868 27.6313 11.9658 26.9587 11.9658C26.2861 11.9658 25.8938 11.9868 25.8938 12.0228ZM34.5951 15.3559C34.5121 15.4517 34.5 16.0684 34.5811 16.0684C34.6119 16.0684 34.6372 16.1197 34.6372 16.1823C34.6372 16.245 34.6624 16.2963 34.6932 16.2963C34.724 16.2963 34.7493 16.3476 34.7493 16.4103C34.7493 16.4729 34.7745 16.5242 34.8053 16.5242C34.8361 16.5242 34.8614 16.6011 34.8614 16.6952C34.8614 16.7892 34.8866 16.8661 34.9174 16.8661C34.9482 16.8661 34.9735 16.9943 34.9735 17.151C34.9735 17.3077 34.9987 17.4359 35.0295 17.4359C35.0649 17.4359 35.0855 17.8348 35.0855 18.5185C35.0855 19.2023 35.0649 19.6011 35.0295 19.6011C34.9975 19.6011 34.9735 19.7721 34.9735 20C34.9735 20.2279 34.9494 20.3989 34.9174 20.3989C34.8862 20.3989 34.8614 20.5508 34.8614 20.7407V21.0826H35.1416C35.2957 21.0826 35.4218 21.057 35.4218 21.0256C35.4218 20.9943 35.4615 20.9687 35.5099 20.9687C35.6179 20.9687 35.7581 20.8332 35.7581 20.7289C35.7581 20.6866 35.8086 20.615 35.8702 20.5698C35.936 20.5215 35.9823 20.4223 35.9823 20.3293C35.9823 20.2422 36.0075 20.1709 36.0383 20.1709C36.071 20.1709 36.0944 19.981 36.0944 19.7151C36.0944 19.4492 36.1178 19.2593 36.1504 19.2593C36.1844 19.2593 36.2065 19.0124 36.2065 18.6325C36.2065 18.2526 36.1844 18.0057 36.1504 18.0057C36.1178 18.0057 36.0944 17.8158 36.0944 17.5499C36.0944 17.2839 36.071 17.094 36.0383 17.094C36.0075 17.094 35.9823 16.9915 35.9823 16.8661C35.9823 16.7407 35.9571 16.6382 35.9263 16.6382C35.8954 16.6382 35.8702 16.5613 35.8702 16.4672C35.8702 16.3732 35.845 16.2963 35.8142 16.2963C35.7833 16.2963 35.7581 16.245 35.7581 16.1823C35.7581 16.1197 35.7329 16.0684 35.7021 16.0684C35.6712 16.0684 35.646 16.0293 35.646 15.9817C35.646 15.934 35.5079 15.7545 35.339 15.5828C35.0898 15.3295 34.9974 15.2711 34.8486 15.2728C34.7477 15.274 34.6337 15.3114 34.5951 15.3559ZM36.9911 15.7835C36.9911 15.8148 36.9515 15.8405 36.9031 15.8405C36.7252 15.8405 36.6549 15.9927 36.6549 16.3777C36.6549 16.5893 36.6792 16.7521 36.7109 16.7521C36.7417 16.7521 36.767 16.8291 36.767 16.9231C36.767 17.0171 36.7922 17.094 36.823 17.094C36.8538 17.094 36.8791 17.1709 36.8791 17.265C36.8791 17.359 36.9043 17.4359 36.9351 17.4359C36.9659 17.4359 36.9911 17.5385 36.9911 17.6638C36.9911 17.7892 37.0164 17.8917 37.0472 17.8917C37.0808 17.8917 37.1032 18.1197 37.1032 18.4615C37.1032 18.8034 37.0808 19.0313 37.0472 19.0313C37.0164 19.0313 36.9911 19.1595 36.9911 19.3162C36.9911 19.4729 36.9659 19.6011 36.9351 19.6011C36.9043 19.6011 36.8791 19.7037 36.8791 19.8291C36.8791 19.9544 36.8538 20.057 36.823 20.057C36.7922 20.057 36.767 20.1339 36.767 20.2279C36.767 20.3219 36.7417 20.3989 36.7109 20.3989C36.6801 20.3989 36.6549 20.4501 36.6549 20.5128C36.6549 20.5755 36.6296 20.6268 36.5988 20.6268C36.568 20.6268 36.5428 20.7272 36.5428 20.85C36.5428 20.9728 36.5113 21.0881 36.4727 21.1064C36.4167 21.1329 36.4167 21.1463 36.4727 21.1728C36.5113 21.1911 36.5428 21.2442 36.5428 21.2909C36.5428 21.4288 36.6906 21.5385 36.8765 21.5385C37.0074 21.5385 37.1119 21.4757 37.3009 21.2835C37.4388 21.1434 37.5516 20.9895 37.5516 20.9417C37.5516 20.8938 37.5768 20.8547 37.6077 20.8547C37.6385 20.8547 37.6637 20.7778 37.6637 20.6838C37.6637 20.5897 37.6889 20.5128 37.7198 20.5128C37.7506 20.5128 37.7758 20.4103 37.7758 20.2849C37.7758 20.1595 37.801 20.057 37.8319 20.057C37.8627 20.057 37.8879 19.9288 37.8879 19.7721C37.8879 19.6154 37.9131 19.4872 37.944 19.4872C37.9793 19.4872 38 19.1073 38 18.4615C38 17.8158 37.9793 17.4359 37.944 17.4359C37.9131 17.4359 37.8879 17.3077 37.8879 17.151C37.8879 16.9943 37.8627 16.8661 37.8319 16.8661C37.801 16.8661 37.7758 16.7635 37.7758 16.6382C37.7758 16.5128 37.7506 16.4103 37.7198 16.4103C37.6889 16.4103 37.6637 16.359 37.6637 16.2963C37.6637 16.2336 37.6385 16.1823 37.6077 16.1823C37.5768 16.1823 37.5516 16.142 37.5516 16.0928C37.5516 15.9583 37.4095 15.8405 37.2473 15.8405C37.1681 15.8405 37.1032 15.8148 37.1032 15.7835C37.1032 15.7521 37.078 15.7265 37.0472 15.7265C37.0164 15.7265 36.9911 15.7521 36.9911 15.7835ZM4.83407 25.8989C4.70712 26.0367 4.65976 26.3248 4.76401 26.3248C4.79484 26.3248 4.82006 26.4274 4.82006 26.5527C4.82006 26.6781 4.84528 26.7806 4.87611 26.7806C4.90693 26.7806 4.93215 26.8575 4.93215 26.9516C4.93215 27.0456 4.95738 27.1225 4.9882 27.1225C5.01903 27.1225 5.04425 27.1738 5.04425 27.2365C5.04425 27.2991 5.06947 27.3504 5.1003 27.3504C5.13112 27.3504 5.15634 27.3961 5.15634 27.4518C5.15634 27.5076 5.20678 27.5901 5.26844 27.6353C5.33009 27.6805 5.38053 27.7574 5.38053 27.8063C5.38053 27.8551 5.43097 27.932 5.49263 27.9772C5.55428 28.0224 5.60472 28.0941 5.60472 28.1367C5.60472 28.1793 5.7056 28.3126 5.82891 28.4331C5.95221 28.5535 6.0531 28.68 6.0531 28.7142C6.0531 28.7961 7.09827 29.8576 7.17886 29.8576C7.21311 29.8576 7.31186 29.9345 7.39823 30.0285C7.4846 30.1225 7.59563 30.1994 7.64489 30.1994C7.69422 30.1994 7.73451 30.2251 7.73451 30.2564C7.73451 30.2878 7.78496 30.3134 7.84661 30.3134C7.90826 30.3134 7.9587 30.339 7.9587 30.3704C7.9587 30.4017 8.03437 30.4274 8.12684 30.4274C8.21932 30.4274 8.29498 30.453 8.29498 30.4843C8.29498 30.6049 8.69006 30.5437 8.82996 30.4014C8.96548 30.2637 9.02085 29.9715 8.9115 29.9715C8.88068 29.9715 8.85546 29.9312 8.85546 29.882C8.85546 29.7721 8.72223 29.6296 8.61961 29.6296C8.57797 29.6296 8.50757 29.5783 8.46313 29.5157C8.41868 29.453 8.33747 29.4017 8.2826 29.4017C8.22779 29.4017 8.18289 29.3761 8.18289 29.3447C8.18289 29.3134 8.138 29.2878 8.08318 29.2878C8.02831 29.2878 7.9471 29.2365 7.90265 29.1738C7.85821 29.1111 7.78765 29.0598 7.74578 29.0598C7.70391 29.0598 7.57276 28.9573 7.45428 28.8319C7.33579 28.7066 7.20986 28.604 7.17443 28.604C7.0907 28.604 6.94985 28.4601 6.94985 28.3745C6.94985 28.3378 6.87419 28.236 6.78171 28.1481C6.68923 28.0603 6.61357 27.9531 6.61357 27.91C6.61357 27.8668 6.56313 27.7945 6.50147 27.7493C6.43982 27.7041 6.38938 27.6272 6.38938 27.5784C6.38938 27.5295 6.33894 27.4526 6.27729 27.4074C6.21563 27.3622 6.16519 27.2797 6.16519 27.2239C6.16519 27.1681 6.13997 27.1225 6.10914 27.1225C6.07832 27.1225 6.0531 27.0712 6.0531 27.0085C6.0531 26.9459 6.02788 26.8946 5.99705 26.8946C5.96622 26.8946 5.941 26.8177 5.941 26.7236C5.941 26.6296 5.91578 26.5527 5.88496 26.5527C5.85413 26.5527 5.82891 26.5014 5.82891 26.4387C5.82891 26.3761 5.80369 26.3248 5.77286 26.3248C5.74204 26.3248 5.71681 26.2852 5.71681 26.2368C5.71681 26.1227 5.46718 25.8689 5.35503 25.8689C5.30739 25.8689 5.26844 25.8433 5.26844 25.812C5.26844 25.701 4.95934 25.7629 4.83407 25.8989ZM3.3208 26.7519C3.23768 26.8479 3.22591 27.3504 3.30678 27.3504C3.33761 27.3504 3.36283 27.453 3.36283 27.5784C3.36283 27.7037 3.38805 27.8063 3.41888 27.8063C3.4497 27.8063 3.47493 27.8576 3.47493 27.9202C3.47493 27.9829 3.50015 28.0342 3.53097 28.0342C3.5618 28.0342 3.58702 28.1111 3.58702 28.2051C3.58702 28.2991 3.61224 28.3761 3.64307 28.3761C3.67389 28.3761 3.69911 28.4274 3.69911 28.49C3.69911 28.5527 3.72434 28.604 3.75516 28.604C3.78599 28.604 3.81121 28.6553 3.81121 28.718C3.81121 28.7806 3.83643 28.8319 3.86726 28.8319C3.89808 28.8319 3.9233 28.8832 3.9233 28.9459C3.9233 29.0085 3.94853 29.0598 3.97935 29.0598C4.01018 29.0598 4.0354 29.1055 4.0354 29.1612C4.0354 29.217 4.08584 29.2995 4.14749 29.3447C4.20914 29.3899 4.25959 29.4622 4.25959 29.5054C4.25959 29.5485 4.33525 29.6558 4.42773 29.7436C4.52021 29.8314 4.59587 29.9318 4.59587 29.9667C4.59587 30.0557 5.53119 30.9972 5.61957 30.9972C5.65942 30.9972 5.72842 31.0484 5.77286 31.1111C5.81731 31.1738 5.89852 31.2251 5.95339 31.2251C6.0082 31.2251 6.0531 31.2507 6.0531 31.2821C6.0531 31.3134 6.10354 31.339 6.16519 31.339C6.22684 31.339 6.27729 31.3647 6.27729 31.396C6.27729 31.5166 6.67236 31.4554 6.81226 31.3131C7.01492 31.1071 6.99525 30.8685 6.75554 30.6249C6.64871 30.5162 6.52815 30.4274 6.48769 30.4274C6.44722 30.4274 6.37778 30.3761 6.33333 30.3134C6.28889 30.2507 6.21989 30.1994 6.18004 30.1994C6.08549 30.1994 5.15634 29.2548 5.15634 29.1587C5.15634 29.1182 5.1059 29.048 5.04425 29.0029C4.9826 28.9577 4.93215 28.8807 4.93215 28.8319C4.93215 28.7831 4.88171 28.7062 4.82006 28.661C4.75841 28.6158 4.70796 28.5332 4.70796 28.4774C4.70796 28.4217 4.68274 28.3761 4.65192 28.3761C4.62109 28.3761 4.59587 28.2991 4.59587 28.2051C4.59587 28.1111 4.57065 28.0342 4.53982 28.0342C4.509 28.0342 4.48378 27.9316 4.48378 27.8063C4.48378 27.6809 4.45855 27.5784 4.42773 27.5784C4.3969 27.5784 4.37168 27.5014 4.37168 27.4074C4.37168 27.3134 4.34646 27.2365 4.31563 27.2365C4.28481 27.2365 4.25959 27.1972 4.25959 27.1491C4.25959 27.101 4.17215 26.9728 4.06527 26.8642C3.9029 26.6991 3.83161 26.667 3.63091 26.6688C3.49628 26.67 3.36009 26.7066 3.3208 26.7519Z" fill="#C4C4C4"/>
</svg>
